<svg width="25" height="25" viewBox="0 0 25 25" fill="none" xmlns="http://www.w3.org/2000/svg">
<path d="M12.5 25C5.625 25 0 19.375 0 12.5C0 5.625 5.625 0 12.5 0C19.375 0 25 5.625 25 12.5C25 19.375 19.375 25 12.5 25ZM9.89583 17.7083C10.5208 20.9375 11.6667 22.9167 12.5 22.9167C13.3333 22.9167 14.4792 20.9375 15.1042 17.7083H9.89583ZM17.2917 17.7083C16.9792 19.4792 16.4583 21.1458 15.8333 22.3958C18.2292 21.5625 20.3125 19.8958 21.5625 17.7083H17.2917ZM3.4375 17.7083C4.6875 19.8958 6.77083 21.5625 9.16667 22.3958C8.54167 21.1458 8.02083 19.4792 7.70833 17.7083H3.4375ZM17.6042 15.625H22.5C22.7083 14.6875 22.9167 13.5417 22.9167 12.5C22.9167 11.4583 22.7083 10.3125 22.3958 9.375H17.5C17.7083 10.4167 17.7083 11.4583 17.7083 12.5C17.7083 13.5417 17.7083 14.5833 17.6042 15.625ZM9.58333 15.625H15.5208C15.625 14.6875 15.7292 13.6458 15.7292 12.5C15.7292 11.3542 15.625 10.3125 15.5208 9.375H9.58333C9.47917 10.3125 9.375 11.3542 9.375 12.5C9.375 13.6458 9.47917 14.6875 9.58333 15.625ZM2.60417 15.625H7.5C7.39583 14.5833 7.39583 13.5417 7.39583 12.5C7.39583 11.4583 7.39583 10.4167 7.5 9.375H2.60417C2.29167 10.3125 2.08333 11.4583 2.08333 12.5C2.08333 13.5417 2.29167 14.6875 2.60417 15.625ZM17.2917 7.29167H21.5625C20.3125 5.10417 18.2292 3.4375 15.8333 2.60417C16.4583 3.85417 16.9792 5.52083 17.2917 7.29167ZM9.89583 7.29167H15.2083C14.5833 4.0625 13.4375 2.08333 12.6042 2.08333C11.7708 2.08333 10.5208 4.0625 9.89583 7.29167ZM3.4375 7.29167H7.70833C8.02083 5.52083 8.54167 3.85417 9.16667 2.60417C6.77083 3.4375 4.79167 5.10417 3.4375 7.29167Z" fill="#2C2015" fill-opacity="0.8"/>
</svg>
