<svg width="30" height="23" viewBox="0 0 30 23" fill="none" xmlns="http://www.w3.org/2000/svg">
<path d="M1.45161 9.6C0.649916 9.6 0 10.4059 0 11.4C0 12.3941 0.649916 13.2 1.45161 13.2V9.6ZM28.5484 13.2C29.3501 13.2 30 12.3941 30 11.4C30 10.4059 29.3501 9.6 28.5484 9.6V13.2ZM1.45161 0C0.649916 0 0 0.805896 0 1.8C0 2.7941 0.649916 3.6 1.45161 3.6V0ZM19.5155 3.6C20.3172 3.6 20.9671 2.7941 20.9671 1.8C20.9671 0.805896 20.3172 0 19.5155 0V3.6ZM1.45161 19.2C0.649916 19.2 0 20.0059 0 21C0 21.9941 0.649916 22.8 1.45161 22.8V19.2ZM19.5155 22.8C20.3172 22.8 20.9671 21.9941 20.9671 21C20.9671 20.0059 20.3172 19.2 19.5155 19.2V22.8ZM1.45161 13.2H28.5484V9.6H1.45161V13.2ZM1.45161 3.6H19.5155V0H1.45161V3.6ZM1.45161 22.8H19.5155V19.2H1.45161V22.8Z" fill="white"/>
</svg>
