<svg width="25" height="25" viewBox="0 0 25 25" fill="none" xmlns="http://www.w3.org/2000/svg">
<path fill-rule="evenodd" clip-rule="evenodd" d="M12.5 12.5C9.72937 12.5 7.4762 10.2575 7.4762 7.49998C7.4762 4.74248 9.72937 2.49998 12.5 2.49998C15.2706 2.49998 17.5238 4.74248 17.5238 7.49998C17.5238 10.2575 15.2706 12.5 12.5 12.5ZM17.2199 13.3412C19.2131 11.7449 20.3748 9.16366 19.9478 6.33741C19.4517 3.05866 16.7112 0.434971 13.403 0.0524711C8.83765 -0.476279 4.9643 3.06123 4.9643 7.49998C4.9643 9.86248 6.06451 11.9674 7.78014 13.3412C3.56516 14.9174 0.488079 18.6187 0.00579258 23.6137C-0.0645399 24.3525 0.514459 25 1.26049 25C1.89977 25 2.44486 24.52 2.50138 23.8862C3.00501 18.3075 7.2966 15 12.5 15C17.7034 15 21.995 18.3075 22.4986 23.8862C22.5551 24.52 23.1002 25 23.7395 25C24.4855 25 25.0645 24.3525 24.9942 23.6137C24.5119 18.6187 21.4348 14.9174 17.2199 13.3412Z" fill="#2C2015" fill-opacity="0.8"/>
</svg>
