<svg width="20" height="21" viewBox="0 0 20 21" fill="none" xmlns="http://www.w3.org/2000/svg">
<path d="M19.9948 14.2624C19.9837 14.0783 19.9774 13.8927 19.9607 13.7086C19.9266 13.3294 19.8917 12.9501 19.8671 12.5709C19.8465 12.2773 19.8393 11.9837 19.7156 11.7124C19.6783 11.6299 19.6188 11.5569 19.5529 11.491C19.4387 11.3752 19.3268 11.3355 19.18 11.2728C19.0824 11.2324 18.9626 11.2332 18.8515 11.2244C18.7079 11.2006 18.5659 11.1729 18.4199 11.1562C18.2565 11.1364 18.0922 11.1229 17.928 11.1086C17.9248 10.919 17.9217 10.7293 17.9169 10.5397C17.9153 10.4786 17.9145 10.4167 17.9129 10.3556C18.0145 10.4231 18.1271 10.4707 18.2541 10.4628C18.5881 10.4445 18.9221 10.4286 19.2498 10.358C19.5402 10.2969 19.7774 10.0692 19.8552 9.78677C19.8893 9.66062 19.8758 9.52732 19.8893 9.39958C19.9298 9.0005 19.9099 8.58951 19.9115 8.18725C19.9163 7.61757 20.0163 6.83289 19.4418 6.49569C19.1705 6.3378 18.8365 6.36398 18.5334 6.36557C18.3073 6.36557 18.0803 6.3489 17.8526 6.33462C17.8526 5.98869 17.8455 5.64277 17.8415 5.29763C18.043 5.29842 18.2438 5.27383 18.4429 5.25002C18.5881 5.23098 18.7317 5.21432 18.8769 5.20321C19.1015 5.18655 19.3371 5.17306 19.537 5.05802C19.6664 4.98344 19.7933 4.86919 19.8568 4.73192C19.9314 4.57086 19.9504 4.4574 19.9695 4.28127C19.9806 4.16701 19.9758 4.05038 19.9758 3.93613C19.9726 3.71794 19.9663 3.49896 19.9679 3.28077C19.9695 3.00307 19.9758 2.72379 19.9695 2.4461C19.9615 2.13984 19.9417 1.82803 19.8132 1.54716C19.7084 1.31469 19.476 1.13934 19.2308 1.08222C19.0856 1.04969 18.9356 1.04175 18.7889 1.02906C18.6524 1.01716 18.5151 1.01398 18.3787 1.01398C18.2414 1.01398 18.1049 1.01716 17.9685 1.01795C17.9534 1.01795 17.9383 1.01795 17.924 1.01795C17.9248 1.00129 17.9256 0.985421 17.9264 0.969553C17.9407 0.760091 17.8264 0.578399 17.6654 0.45542C17.6527 0.422097 17.6495 0.386393 17.6313 0.35545C17.5472 0.211842 17.3797 0.0602995 17.2084 0.0309432C17.0529 0.00634734 16.8989 0 16.7442 0C16.6085 0 16.4729 0.00476041 16.3364 0.00634724C16.2039 0.00952089 16.0714 0.00952097 15.9381 0.00793414C15.8056 0.00793414 15.6747 0.00793421 15.5414 0.00952104C15.0027 0.0174552 14.4647 0.0253893 13.9244 0.038084C12.6462 0.0698206 11.368 0.142815 10.0899 0.142815C9.4218 0.142815 8.75374 0.111078 8.08648 0.107111C7.5295 0.103937 6.97411 0.0745811 6.41634 0.0666469C6.19657 0.0634733 5.97917 0.0483984 5.76098 0.0357037C5.49916 0.0214223 5.23495 0.0341169 4.97312 0.0357037C4.68273 0.0357037 4.39076 0.0468114 4.10116 0.0452246C3.79966 0.0452246 3.49896 0.0404641 3.19587 0.042051C2.93405 0.0452246 2.66984 0.0499851 2.40801 0.0579192C2.03828 0.0666468 1.73123 0.356243 1.73123 0.733908C1.73123 0.753744 1.74155 0.771992 1.74313 0.791828C1.6749 0.898939 1.62571 1.01716 1.63047 1.15045C1.64158 1.50193 1.663 1.85183 1.68442 2.20173C1.46226 2.20887 1.24011 2.21363 1.01795 2.22632C0.619657 2.24616 0.287216 2.54289 0.287216 2.95626C0.287216 3.3371 0.619657 3.71159 1.01795 3.6862C1.25756 3.67192 1.49638 3.65447 1.7352 3.63701C1.73996 4.05197 1.74313 4.46613 1.75821 4.88029C1.76138 4.9763 1.76217 5.07309 1.76376 5.16989C1.42259 5.20401 1.07984 5.21749 0.738669 5.2413C0.375285 5.26669 0.069027 5.52772 0.069027 5.91094C0.069027 6.2529 0.373698 6.60994 0.738669 6.58058C1.09571 6.55122 1.45195 6.51473 1.80819 6.47585C1.81295 6.56154 1.81613 6.64802 1.82089 6.7345C1.84786 7.24229 1.88039 7.74769 1.9153 8.25389C1.50273 8.29356 1.0846 8.30308 0.669642 8.32213C0.306258 8.33879 0 8.6141 0 8.99177C0 9.34087 0.304671 9.68363 0.669642 9.663C1.11316 9.63681 1.55192 9.57334 1.99306 9.54399C2.01607 9.88991 2.04542 10.235 2.05494 10.581C2.05891 10.7444 2.06526 10.9079 2.07081 11.0705C1.66617 11.0721 1.25994 11.0396 0.856888 11.0126C0.8434 11.0118 0.830705 11.011 0.81801 11.011C0.459387 11.011 0.165824 11.3585 0.165824 11.7037C0.165824 12.0972 0.480809 12.3765 0.856888 12.3963C1.27422 12.4185 1.69553 12.4288 2.11366 12.4185C2.13032 13.0437 2.12952 13.6713 2.11683 14.2981C2.08033 14.2973 2.04463 14.295 2.00813 14.295C1.6868 14.295 1.36309 14.3235 1.04572 14.3568C0.864822 14.3751 0.71328 14.4163 0.58078 14.5504C0.4578 14.6726 0.387186 14.8408 0.387186 15.0154C0.387186 15.1883 0.4578 15.3573 0.58078 15.4803C0.691858 15.5914 0.883864 15.6929 1.04572 15.6723C1.37895 15.6319 1.71933 15.5938 2.05732 15.589C2.04701 15.7707 2.03511 15.9524 2.02955 16.1341C2.01845 16.4832 2.01051 16.8315 1.99226 17.1814C1.98671 17.2742 1.98512 17.3678 1.98036 17.4615C1.63602 17.4813 1.29168 17.5027 0.947337 17.5265C0.760091 17.5408 0.595854 17.5924 0.46018 17.7281C0.332441 17.8558 0.258653 18.0319 0.258653 18.2152C0.258653 18.5659 0.572052 18.9333 0.946544 18.9031C1.27026 18.8769 1.59318 18.8428 1.9153 18.8079C1.89071 19.1752 1.86056 19.5426 1.83199 19.9099C1.80264 20.286 2.1692 20.6034 2.52465 20.6034C2.56828 20.6034 2.60795 20.5859 2.6508 20.578C2.73173 20.6105 2.819 20.6312 2.91104 20.6288C3.30933 20.6177 3.70525 20.6026 4.10354 20.582C4.43281 20.5653 4.76049 20.5328 5.08817 20.5153C5.73242 20.4796 6.37747 20.4876 7.02172 20.4923C7.73817 20.5002 8.45621 20.4876 9.17346 20.4749C9.82565 20.4638 10.4794 20.4534 11.1316 20.455C12.1757 20.4598 13.2199 20.4709 14.264 20.5034C14.7305 20.5193 15.2002 20.528 15.6668 20.5645C16.1365 20.5986 16.6141 20.605 17.0838 20.5843C17.2282 20.5788 17.3567 20.5225 17.467 20.4447C17.8003 20.4035 18.1018 20.1178 18.0843 19.7663C18.07 19.4966 18.0732 19.2244 18.0621 18.9531C18.0526 18.696 18.0462 18.4382 18.0399 18.1803C18.0256 17.5686 18.0399 16.9569 18.0415 16.3467C18.0415 15.9968 18.0351 15.6469 18.0311 15.2978H18.0319C18.0851 15.3026 18.1383 15.3073 18.193 15.3137C18.1517 15.3081 18.1113 15.3026 18.0708 15.297C18.2684 15.3224 18.4524 15.3383 18.6548 15.3288C18.8809 15.3161 19.1038 15.3002 19.3308 15.2661C19.6362 15.2193 19.8504 14.9805 19.952 14.7044C20.006 14.5631 20.0028 14.4092 19.9948 14.2624ZM18.4048 7.64693C18.4628 7.64852 18.5223 7.64693 18.581 7.64534C18.6072 7.64534 18.6341 7.64455 18.6611 7.64455C18.6809 7.95081 18.6754 8.25945 18.6778 8.56491C18.6794 8.76406 18.6817 8.96083 18.673 9.15759C18.5334 9.16553 18.3937 9.16632 18.2533 9.15362C18.1264 9.14252 17.997 9.20282 17.8883 9.27898C17.8836 9.03541 17.8788 8.79183 17.8725 8.54904C17.8629 8.24516 17.8669 7.94129 17.8645 7.63741C18.0446 7.64058 18.2247 7.64614 18.4048 7.64693ZM18.6667 2.3128C18.6849 2.64445 18.6619 2.9761 18.6476 3.30775C18.6405 3.5061 18.6413 3.70683 18.6365 3.90677C18.3675 3.93692 18.097 3.95359 17.8288 3.94565C17.8209 3.59576 17.809 3.24427 17.8201 2.89438C17.8264 2.70237 17.8423 2.51116 17.8518 2.31915C18.124 2.30963 18.3953 2.30011 18.6667 2.3128ZM15.3256 19.2102C14.6544 19.1927 13.9823 19.1768 13.3095 19.1649C13.062 19.1594 12.8136 19.1578 12.5661 19.1578C12.1527 19.1578 11.7386 19.1633 11.3244 19.1681C10.6111 19.1776 9.89785 19.1848 9.18457 19.2022C8.18407 19.2236 7.18358 19.2221 6.18387 19.2332C5.68164 19.2395 5.17862 19.2665 4.6748 19.2847C4.20589 19.3014 3.73619 19.307 3.26649 19.3165C3.32599 18.4374 3.31806 17.5535 3.34821 16.6736C3.39185 15.4248 3.41248 14.1736 3.39661 12.9247C3.38867 12.3003 3.34345 11.6775 3.32758 11.0554C3.31171 10.4548 3.30298 9.8558 3.26807 9.25598C3.2292 8.59903 3.16493 7.94684 3.14192 7.2891C3.11971 6.65913 3.08876 6.02836 3.07766 5.39601C3.06655 4.69067 3.07448 3.98374 3.06972 3.27839C3.06655 2.64842 3.04989 2.01686 3.0356 1.38451C3.48706 1.36388 3.93772 1.34642 4.38996 1.35515C4.68511 1.35991 4.98106 1.36309 5.27621 1.36309C5.51026 1.36467 5.73956 1.38133 5.97203 1.39562C6.46554 1.42577 6.96301 1.42259 7.4573 1.43449C7.78022 1.44084 8.10314 1.44243 8.42765 1.44243C8.75374 1.44243 9.07984 1.46464 9.40752 1.47416C10.0787 1.49003 10.7484 1.46623 11.4172 1.43846C12.0615 1.41387 12.7081 1.41386 13.3524 1.4091C14.4235 1.40276 15.4954 1.36547 16.5665 1.398C16.5435 1.97005 16.5324 2.54131 16.5237 3.11415C16.5189 3.41724 16.5141 3.72032 16.5189 4.0242C16.5252 4.34871 16.5483 4.67321 16.5609 4.99772C16.5855 5.68958 16.5816 6.38223 16.584 7.07329C16.5871 7.75484 16.5998 8.43717 16.6181 9.11951C16.6339 9.75107 16.6324 10.3834 16.626 11.0158C16.6197 11.687 16.645 12.3574 16.6585 13.0271C16.6847 14.2973 16.6815 15.5676 16.6911 16.8378C16.6958 17.3464 16.6942 17.8574 16.6847 18.366C16.6815 18.5937 16.6863 18.8198 16.6847 19.0459C16.6839 19.1102 16.6879 19.1737 16.6871 19.2371C16.5229 19.2355 16.3594 19.23 16.1952 19.2284C15.9064 19.2236 15.6176 19.2165 15.3256 19.2102ZM18.431 13.9974C18.3588 13.9808 18.289 13.9601 18.216 13.9443C18.1462 13.9292 18.0772 13.9324 18.0089 13.9363C17.9994 13.4706 17.9923 13.0041 17.97 12.5391C17.9677 12.5002 17.9677 12.4622 17.9661 12.4233C18.1486 12.4336 18.3318 12.4368 18.5135 12.4558C18.5429 12.4598 18.5723 12.4645 18.6016 12.4685C18.6238 12.7764 18.6238 13.0858 18.6405 13.3944C18.6524 13.5967 18.6738 13.8007 18.6825 14.0038C18.5976 14.0038 18.5135 14.003 18.431 13.9974ZM12.2995 13.4968C12.2789 13.3421 12.259 13.1897 12.2249 13.0366C12.1892 12.8819 12.1329 12.7399 12.0686 12.5931C11.9861 12.4027 11.8925 12.2154 11.802 12.0282C11.5989 11.5989 11.2546 11.1967 10.8285 10.9777C10.7881 10.9571 10.7436 10.9436 10.7016 10.9245C10.8325 10.7976 10.9515 10.6603 11.0507 10.4969C11.13 10.3675 11.1816 10.2208 11.2363 10.0787C11.2736 9.98195 11.3006 9.88515 11.322 9.78518C11.4283 9.28454 11.4847 8.7474 11.3062 8.25469C11.1848 7.9159 11.011 7.63186 10.7706 7.36289C10.5254 7.08995 10.2335 6.80591 9.85897 6.74323C9.79391 6.73212 9.73202 6.72498 9.67093 6.72498C9.57493 6.66548 9.46464 6.63057 9.34801 6.63057C9.33849 6.63057 9.32897 6.63057 9.31866 6.63136C8.94258 6.6504 8.55698 6.675 8.22295 6.867C7.9635 7.01617 7.79054 7.24705 7.63186 7.4946C7.50412 7.69374 7.39145 7.90162 7.28672 8.11584C7.21452 8.26579 7.1447 8.4221 7.08361 8.57602C7.03838 8.69662 7.01537 8.81722 6.99712 8.94178C6.99871 8.9275 7.0003 8.91322 7.00188 8.89894C6.99792 8.9275 6.99474 8.95607 6.99078 8.98463C6.98681 9.0124 6.98364 9.04096 6.97967 9.06873C6.98205 9.05048 6.98443 9.03223 6.98681 9.01398C6.9519 9.31072 6.94079 9.59159 6.99157 9.89388C7.03759 10.1581 7.20103 10.3826 7.36209 10.5913C7.46127 10.7254 7.55489 10.8666 7.68581 10.9705C7.75642 11.0261 7.8318 11.0713 7.90558 11.1197C7.52633 11.2982 7.18675 11.5593 6.90905 11.8703C6.26004 12.5986 6.04582 13.6118 5.99425 14.5576C5.99266 14.5845 5.99266 14.6107 5.99107 14.6377C5.97679 14.9963 6.3013 15.2962 6.64802 15.2962C7.01299 15.2962 7.29703 14.9963 7.30497 14.6377C7.31132 14.4243 7.31132 14.2101 7.33194 13.9974C7.37796 13.7213 7.4573 13.4516 7.55965 13.1897C7.6271 13.0406 7.70644 12.8954 7.79847 12.7605C7.91986 12.6185 8.05871 12.4931 8.20311 12.3757C8.30467 12.3051 8.41416 12.2464 8.52683 12.1948C8.75533 12.1107 9.00208 12.067 9.24407 12.0305C9.4218 12.0115 9.60666 12.006 9.78598 12.0194C9.84866 12.0321 9.91054 12.048 9.97163 12.0686C10.0526 12.1083 10.1311 12.1519 10.2049 12.2019C10.2747 12.2638 10.3414 12.3289 10.4033 12.3995C10.4731 12.5066 10.5318 12.6201 10.5897 12.7343C10.6619 12.8787 10.7341 13.0223 10.8008 13.1699C10.8626 13.3405 10.9007 13.5182 10.9293 13.6967C10.9674 14.0133 10.9943 14.3322 11.0118 14.6512C11.034 15.0241 11.307 15.3359 11.6965 15.3359C12.0774 15.3359 12.3693 15.0241 12.3804 14.6512C12.3868 14.4592 12.363 14.2656 12.3511 14.0736C12.3447 13.8808 12.3249 13.6872 12.2995 13.4968ZM8.25151 9.16632C8.26897 9.06952 8.29515 8.9759 8.32768 8.88386C8.42924 8.66567 8.55142 8.45304 8.69344 8.25786C8.74978 8.18883 8.80928 8.12219 8.87514 8.06189C8.88386 8.05633 8.89259 8.05157 8.90211 8.04602C8.92195 8.04046 8.94099 8.03491 8.96083 8.03094C9.07984 8.02222 9.19964 8.02063 9.31945 8.01666C9.32421 8.01666 9.32818 8.01666 9.33294 8.01587C9.38133 8.04284 9.43449 8.06347 9.49083 8.07617C9.50193 8.07775 9.51225 8.08014 9.52336 8.08252L9.52494 8.08331C9.64554 8.19042 9.75186 8.31181 9.85421 8.43717C9.91213 8.51969 9.96212 8.60617 10.0065 8.69662C10.0335 8.77358 10.0549 8.85292 10.0708 8.93306C10.0795 9.0608 10.0764 9.18616 10.0645 9.3131C10.0391 9.4702 10.0042 9.62333 9.95101 9.77328C9.92244 9.82803 9.8915 9.88039 9.85738 9.93196C9.80343 9.99147 9.74472 10.0454 9.68363 10.097C9.62491 10.1375 9.5662 10.1747 9.50273 10.2089C9.46544 10.2224 9.42735 10.2335 9.38848 10.2438C9.31231 10.247 9.23693 10.2454 9.15997 10.2398C9.01874 10.2144 8.87752 10.1795 8.74105 10.1327C8.67678 10.1002 8.6141 10.0645 8.5546 10.024C8.53793 10.0089 8.52286 9.99306 8.50778 9.9764C8.42051 9.86056 8.33244 9.74155 8.26421 9.61301C8.25627 9.58683 8.24913 9.56065 8.24279 9.53288C8.23723 9.41149 8.2412 9.28851 8.25151 9.16632Z" fill="#2C2015" fill-opacity="0.8"/>
</svg>
