<svg width="40" height="40" viewBox="0 0 40 40" fill="none" xmlns="http://www.w3.org/2000/svg">
<path d="M5.00065 6.66667V15H8.33398V8.33333H15.0007V5H6.66732C6.22529 5 5.80137 5.17559 5.48881 5.48816C5.17625 5.80072 5.00065 6.22464 5.00065 6.66667ZM35.0007 15V6.66667C35.0007 6.22464 34.8251 5.80072 34.5125 5.48816C34.1999 5.17559 33.776 5 33.334 5H25.0007V8.33333H31.6673V15H35.0007ZM31.6673 31.6667H25.0007V35H33.334C33.776 35 34.1999 34.8244 34.5125 34.5118C34.8251 34.1993 35.0007 33.7754 35.0007 33.3333V25H31.6673V31.6667ZM15.0007 35V31.6667H8.33398V25H5.00065V33.3333C5.00065 33.7754 5.17625 34.1993 5.48881 34.5118C5.80137 34.8244 6.22529 35 6.66732 35H15.0007ZM3.33398 18.3333H36.6673V21.6667H3.33398V18.3333Z" fill="#95877A" fill-opacity="0.5"/>
</svg>
