<svg width="17" height="17" viewBox="0 0 17 17" fill="none" xmlns="http://www.w3.org/2000/svg">
<path d="M-0.00101368 6.87582C-0.00101368 5.92803 0.177057 5.04055 0.533198 4.21338C0.889339 3.38047 1.38334 2.64808 2.01521 2.01622C2.64707 1.38436 3.37658 0.890353 4.20375 0.534212C5.03666 0.178071 5.92701 0 6.87481 0C7.82261 0 8.71009 0.178071 9.53725 0.534212C10.3702 0.890353 11.1026 1.38436 11.7344 2.01622C12.3663 2.64808 12.8603 3.38047 13.2164 4.21338C13.5726 5.04055 13.7506 5.92803 13.7506 6.87582C13.7506 7.66278 13.6243 8.40953 13.3715 9.11607C13.1245 9.82261 12.7799 10.4631 12.3376 11.0375L16.5509 15.2767C16.6428 15.3686 16.7118 15.4749 16.7577 15.5955C16.8094 15.7162 16.8353 15.8454 16.8353 15.9833C16.8353 16.1728 16.7922 16.3452 16.706 16.5003C16.6256 16.6553 16.5107 16.776 16.3614 16.8621C16.212 16.954 16.0397 17 15.8444 17C15.7065 17 15.5744 16.9742 15.448 16.9225C15.3274 16.8765 15.2154 16.8047 15.112 16.707L10.8728 12.4592C10.3098 12.8613 9.68947 13.1772 9.01166 13.407C8.33384 13.6368 7.62156 13.7516 6.87481 13.7516C5.92701 13.7516 5.03666 13.5736 4.20375 13.2174C3.37658 12.8613 2.64707 12.3673 2.01521 11.7354C1.38334 11.1036 0.889339 10.374 0.533198 9.54688C0.177057 8.71397 -0.00101368 7.82362 -0.00101368 6.87582ZM1.47238 6.87582C1.47238 7.62257 1.61024 8.32337 1.88596 8.97821C2.16743 9.6273 2.55516 10.1989 3.04916 10.6929C3.54891 11.1869 4.12333 11.5746 4.77243 11.8561C5.42727 12.1375 6.12806 12.2783 6.87481 12.2783C7.62156 12.2783 8.31948 12.1375 8.96858 11.8561C9.62342 11.5746 10.1978 11.1869 10.6918 10.6929C11.1858 10.1989 11.5736 9.6273 11.855 8.97821C12.1365 8.32337 12.2772 7.62257 12.2772 6.87582C12.2772 6.12908 12.1365 5.43115 11.855 4.78206C11.5736 4.12722 11.1858 3.5528 10.6918 3.05879C10.1978 2.55905 9.62342 2.17131 8.96858 1.89559C8.31948 1.61412 7.62156 1.47339 6.87481 1.47339C6.12806 1.47339 5.42727 1.61412 4.77243 1.89559C4.12333 2.17131 3.54891 2.55905 3.04916 3.05879C2.55516 3.5528 2.16743 4.12722 1.88596 4.78206C1.61024 5.43115 1.47238 6.12908 1.47238 6.87582Z" fill="#3C3C43" fill-opacity="0.6"/>
</svg>
