<svg width="30" height="30" viewBox="0 0 30 30" fill="none" xmlns="http://www.w3.org/2000/svg">
<path d="M15 1.875L3.75 5.625V16.875C3.75 23.0889 8.78613 28.125 15 28.125C21.2139 28.125 26.25 23.0889 26.25 16.875V5.625L15 1.875ZM24.1406 16.875C24.1406 21.9229 20.0479 26.0156 15 26.0156C9.95215 26.0156 5.85938 21.9229 5.85938 16.875V7.20703L15 3.98438L24.1406 7.20703V16.875Z" fill="#2C2015" fill-opacity="0.8"/>
<path d="M11.0862 13.9189C10.9884 13.8207 10.8723 13.7428 10.7443 13.6897C10.6164 13.6365 10.4792 13.6091 10.3406 13.6091C10.202 13.6091 10.0648 13.6365 9.93689 13.6897C9.80893 13.7428 9.69275 13.8207 9.59499 13.9189C9.49679 14.0167 9.41887 14.1329 9.3657 14.2608C9.31253 14.3888 9.28516 14.526 9.28516 14.6646C9.28516 14.8031 9.31253 14.9403 9.3657 15.0683C9.41887 15.1962 9.49679 15.3124 9.59499 15.4102L13.386 19.2012L13.4475 19.2627C13.54 19.3553 13.6498 19.4288 13.7707 19.479C13.8916 19.5291 14.0212 19.5549 14.1521 19.5549C14.283 19.5549 14.4126 19.5291 14.5335 19.479C14.6544 19.4288 14.7642 19.3553 14.8567 19.2627L21.4046 12.7148C21.4972 12.6224 21.5707 12.5126 21.6208 12.3917C21.671 12.2707 21.6968 12.1411 21.6968 12.0103C21.6968 11.8794 21.671 11.7498 21.6208 11.6289C21.5707 11.508 21.4972 11.3981 21.4046 11.3057L21.3225 11.2236C21.2301 11.131 21.1202 11.0575 20.9993 11.0074C20.8784 10.9572 20.7488 10.9314 20.6179 10.9314C20.4871 10.9314 20.3574 10.9572 20.2365 11.0074C20.1156 11.0575 20.0058 11.131 19.9134 11.2236L14.1507 16.9834L11.0862 13.9189Z" fill="#2C2015" fill-opacity="0.8"/>
</svg>
