<svg width="13" height="9" viewBox="0 0 13 9" fill="none" xmlns="http://www.w3.org/2000/svg">
<path d="M3.9633 3.27361C4.06044 3.1538 4.15351 3.03759 4.24154 2.92661C4.50942 2.58868 4.73621 2.29199 4.89635 2.0793C4.97649 1.97287 5.04013 1.88722 5.08407 1.82771L5.13489 1.75864L5.14851 1.74L5.15333 1.73339C5.15337 1.73333 5.15388 1.73263 4.2711 1.09126L5.15333 1.73339C5.50755 1.24584 5.40002 0.5627 4.91247 0.208472C4.42496 -0.145735 3.74261 -0.0376752 3.38837 0.449808L3.3853 0.454031L3.37412 0.469307L3.32856 0.531252C3.28825 0.585844 3.22865 0.666057 3.15292 0.766631C3.00132 0.967974 2.78583 1.24993 2.53151 1.57069C2.0173 2.2192 1.36604 2.99874 0.771581 3.59321L0 4.36478L0.771581 5.13635C1.36604 5.73083 2.0173 6.51036 2.53151 7.15885C2.78583 7.47966 3.00132 7.76161 3.15292 7.96294C3.22865 8.06354 3.28825 8.14374 3.32856 8.1983L3.37412 8.26028L3.3853 8.27556L3.38784 8.27905C3.74208 8.76648 4.42496 8.87527 4.91247 8.52107C5.40002 8.16688 5.5081 7.48446 5.15388 6.99692L4.2711 7.63831C5.15388 6.99692 5.15393 6.99703 5.15388 6.99692L5.14851 6.98961L5.13489 6.97095L5.08407 6.90188C5.04013 6.8423 4.97649 6.75675 4.89635 6.65025C4.73621 6.43758 4.50942 6.14089 4.24154 5.80295C4.15351 5.69198 4.06044 5.57577 3.9633 5.45596H13.0005V3.27361H3.9633Z" fill="#2C2015" fill-opacity="0.8"/>
</svg>
