<svg width="30" height="30" viewBox="0 0 30 30" fill="none" xmlns="http://www.w3.org/2000/svg">
<path d="M18.5907 24.3042C18.5907 24.6833 18.4937 25.0588 18.3053 25.4092C18.1168 25.7596 17.8407 26.0778 17.4926 26.3461C17.1443 26.6142 16.731 26.8268 16.2761 26.972C15.8212 27.1171 15.3336 27.1918 14.8412 27.1918C14.3488 27.1918 13.8613 27.1171 13.4063 26.972C12.9515 26.8268 12.5381 26.6142 12.19 26.3461C11.8418 26.0778 11.5656 25.7596 11.3772 25.4092C11.1888 25.0588 11.0918 24.6833 11.0918 24.3042" stroke="white" stroke-width="3.75" stroke-linecap="round"/>
<path d="M24.5178 16.4871L24.8485 17.2006C26.1104 19.9217 24.467 23.1024 21.5175 23.6475L21.3173 23.6845C17.036 24.4759 12.6459 24.4759 8.36462 23.6845C5.39098 23.1349 3.81779 19.845 5.25674 17.1854L5.53975 16.6622C6.31247 15.234 6.71712 13.6356 6.71712 12.0118V10.3602C6.71712 7.58042 8.29042 5.04016 10.779 3.80172C13.3469 2.52387 16.3559 2.48041 18.9595 3.68355L19.2154 3.80172C21.8823 5.03407 23.5898 7.70406 23.5898 10.6419V12.2802C23.5898 13.7332 23.9064 15.1689 24.5178 16.4871Z" stroke="white" stroke-width="3.75"/>
</svg>
