<svg width="40" height="40" viewBox="0 0 40 40" fill="none" xmlns="http://www.w3.org/2000/svg">
<path d="M32.8827 27.7717C33.7075 26.7507 34.1601 25.4793 34.166 24.1667C34.166 22.6196 33.5514 21.1359 32.4575 20.042C31.3635 18.948 29.8798 18.3334 28.3327 18.3334C26.7856 18.3334 25.3019 18.948 24.2079 20.042C23.1139 21.1359 22.4993 22.6196 22.4993 24.1667C22.5053 25.4793 22.9579 26.7507 23.7827 27.7717C22.2539 28.5565 20.9514 29.7195 19.9993 31.1501C19.0473 29.7195 17.7448 28.5565 16.216 27.7717C17.0408 26.7507 17.4934 25.4793 17.4993 24.1667C17.4993 22.6196 16.8848 21.1359 15.7908 20.042C14.6968 18.948 13.2131 18.3334 11.666 18.3334C10.1189 18.3334 8.63519 18.948 7.54123 20.042C6.44726 21.1359 5.83268 22.6196 5.83268 24.1667C5.8386 25.4793 6.29121 26.7507 7.11601 27.7717C5.47696 28.6092 4.10085 29.8828 3.13924 31.4523C2.17763 33.0217 1.66784 34.8261 1.66602 36.6667C1.66602 37.1088 1.84161 37.5327 2.15417 37.8453C2.46673 38.1578 2.89065 38.3334 3.33268 38.3334H36.666C37.108 38.3334 37.532 38.1578 37.8445 37.8453C38.1571 37.5327 38.3327 37.1088 38.3327 36.6667C38.3309 34.8261 37.8211 33.0217 36.8595 31.4523C35.8978 29.8828 34.5217 28.6092 32.8827 27.7717ZM11.666 21.6667C12.1605 21.6667 12.6438 21.8134 13.0549 22.0881C13.4661 22.3628 13.7865 22.7532 13.9757 23.21C14.1649 23.6669 14.2144 24.1695 14.118 24.6545C14.0215 25.1394 13.7834 25.5849 13.4338 25.9345C13.0842 26.2841 12.6387 26.5222 12.1537 26.6187C11.6688 26.7152 11.1661 26.6657 10.7093 26.4764C10.2525 26.2872 9.86204 25.9668 9.58734 25.5557C9.31264 25.1445 9.16602 24.6612 9.16601 24.1667C9.16601 23.5037 9.42941 22.8678 9.89825 22.399C10.3671 21.9301 11.003 21.6667 11.666 21.6667ZM5.20935 35.0001C5.57767 33.5675 6.41195 32.2982 7.58085 31.3918C8.74975 30.4854 10.1869 29.9935 11.666 29.9935C13.1451 29.9935 14.5823 30.4854 15.7512 31.3918C16.9201 32.2982 17.7544 33.5675 18.1227 35.0001H5.20935ZM28.3327 21.6667C28.8271 21.6667 29.3105 21.8134 29.7216 22.0881C30.1327 22.3628 30.4532 22.7532 30.6424 23.21C30.8316 23.6669 30.8811 24.1695 30.7846 24.6545C30.6882 25.1394 30.4501 25.5849 30.1004 25.9345C29.7508 26.2841 29.3054 26.5222 28.8204 26.6187C28.3355 26.7152 27.8328 26.6657 27.376 26.4764C26.9192 26.2872 26.5287 25.9668 26.254 25.5557C25.9793 25.1445 25.8327 24.6612 25.8327 24.1667C25.8327 23.5037 26.0961 22.8678 26.5649 22.399C27.0338 21.9301 27.6696 21.6667 28.3327 21.6667ZM21.876 35.0001C22.2443 33.5675 23.0786 32.2982 24.2475 31.3918C25.4164 30.4854 26.8535 29.9935 28.3327 29.9935C29.8118 29.9935 31.2489 30.4854 32.4178 31.3918C33.5867 32.2982 34.421 33.5675 34.7893 35.0001H21.876ZM9.99935 3.33341V13.3334C9.99935 13.7754 10.1749 14.1994 10.4875 14.5119C10.8001 14.8245 11.224 15.0001 11.666 15.0001H16.441L18.7193 17.7351C18.8758 17.9226 19.0715 18.0735 19.2927 18.1771C19.5139 18.2807 19.7551 18.3343 19.9993 18.3343C20.2436 18.3343 20.4848 18.2807 20.706 18.1771C20.9272 18.0735 21.1229 17.9226 21.2793 17.7351L23.5577 15.0001H28.3327C28.7747 15.0001 29.1986 14.8245 29.5112 14.5119C29.8238 14.1994 29.9993 13.7754 29.9993 13.3334V3.33341C29.9993 2.89139 29.8238 2.46746 29.5112 2.1549C29.1986 1.84234 28.7747 1.66675 28.3327 1.66675H11.666C11.224 1.66675 10.8001 1.84234 10.4875 2.1549C10.1749 2.46746 9.99935 2.89139 9.99935 3.33341ZM13.3327 5.00008H26.666V11.6667H22.7777C22.5332 11.6664 22.2917 11.7198 22.0702 11.8232C21.8487 11.9266 21.6527 12.0775 21.496 12.2651L19.9993 14.0634L18.4993 12.2651C18.343 12.0779 18.1475 11.9273 17.9266 11.8239C17.7058 11.7205 17.4649 11.6669 17.221 11.6667H13.3327V5.00008Z" fill="#95877A" fill-opacity="0.5"/>
</svg>
