<svg width="33" height="31" viewBox="0 0 33 31" fill="none" xmlns="http://www.w3.org/2000/svg">
<path d="M15.7115 15.1406H4.85535M4.54763 16.5515L2.75405 21.8634C1.77172 24.7727 1.28056 26.2273 1.63304 27.123C1.93913 27.901 2.59656 28.4907 3.40779 28.7153C4.34194 28.9737 5.75287 28.3441 8.57473 27.0853L26.6655 19.014C29.4198 17.7851 30.797 17.1708 31.2226 16.3172C31.5925 15.5756 31.5925 14.7054 31.2226 13.9639C30.797 13.1105 29.4198 12.496 26.6655 11.2671L8.54353 3.18205C5.73016 1.92688 4.3235 1.29929 3.39028 1.55674C2.57981 1.78032 1.92245 2.36852 1.6153 3.14499C1.2616 4.03908 1.74752 5.49056 2.71937 8.39351L4.55112 13.8651C4.71802 14.3637 4.80149 14.613 4.83443 14.8679C4.86367 15.0943 4.86336 15.3233 4.83355 15.5495C4.79994 15.8043 4.71584 16.0533 4.54763 16.5515Z" stroke="#2C2015" stroke-width="3" stroke-linecap="round" stroke-linejoin="round"/>
</svg>
