<svg width="30" height="30" viewBox="0 0 30 30" fill="none" xmlns="http://www.w3.org/2000/svg">
<path d="M8.4375 26.25H21.5625C22.1875 26.25 22.5 26.5625 22.5 27.1875C22.5 27.8125 22.1875 28.125 21.5625 28.125H8.4375C7.8125 28.125 7.5 27.8125 7.5 27.1875C7.5 26.5625 7.8125 26.25 8.4375 26.25Z" fill="#2C2015" fill-opacity="0.8"/>
<path d="M23.4375 12.1875C23.4375 9.94974 22.5486 7.80362 20.9662 6.22129C19.3839 4.63895 17.2378 3.75 15 3.75C12.7622 3.75 10.6161 4.63895 9.03379 6.22129C7.45145 7.80362 6.5625 9.94974 6.5625 12.1875C6.5625 15.6488 9.33187 20.16 15 25.5637C20.6681 20.16 23.4375 15.6488 23.4375 12.1875ZM15 28.125C8.12437 21.8756 4.6875 16.5619 4.6875 12.1875C4.6875 9.45246 5.77399 6.82943 7.70796 4.89546C9.64193 2.96149 12.265 1.875 15 1.875C17.735 1.875 20.3581 2.96149 22.292 4.89546C24.226 6.82943 25.3125 9.45246 25.3125 12.1875C25.3125 16.5619 21.8756 21.8756 15 28.125Z" fill="#2C2015" fill-opacity="0.8"/>
<path d="M15 15C15.7459 15 16.4613 14.7037 16.9887 14.1762C17.5162 13.6488 17.8125 12.9334 17.8125 12.1875C17.8125 11.4416 17.5162 10.7262 16.9887 10.1988C16.4613 9.67132 15.7459 9.375 15 9.375C14.2541 9.375 13.5387 9.67132 13.0113 10.1988C12.4838 10.7262 12.1875 11.4416 12.1875 12.1875C12.1875 12.9334 12.4838 13.6488 13.0113 14.1762C13.5387 14.7037 14.2541 15 15 15ZM15 16.875C13.7568 16.875 12.5645 16.3811 11.6854 15.5021C10.8064 14.623 10.3125 13.4307 10.3125 12.1875C10.3125 10.9443 10.8064 9.75201 11.6854 8.87294C12.5645 7.99386 13.7568 7.5 15 7.5C16.2432 7.5 17.4355 7.99386 18.3146 8.87294C19.1936 9.75201 19.6875 10.9443 19.6875 12.1875C19.6875 13.4307 19.1936 14.623 18.3146 15.5021C17.4355 16.3811 16.2432 16.875 15 16.875Z" fill="#2C2015" fill-opacity="0.8"/>
</svg>
