<svg width="40" height="40" viewBox="0 0 40 40" fill="none" xmlns="http://www.w3.org/2000/svg">
<path d="M1.66602 36.6667H2.91602C2.91602 36.7773 2.95991 36.8832 3.03806 36.9614C3.11619 37.0395 3.22217 37.0834 3.33268 37.0834H36.666C36.7765 37.0834 36.8825 37.0395 36.9606 36.9614C37.0386 36.8834 37.0825 36.7777 37.0827 36.6674C37.081 35.0571 36.6349 33.4784 35.7936 32.1053C34.9522 30.7321 33.7481 29.6177 32.3139 28.8849L30.9426 28.1842L31.9103 26.9863C32.5561 26.1869 32.9107 25.1916 32.916 24.164C32.9153 22.9494 32.4325 21.7847 31.5736 20.9258C30.714 20.0663 29.5483 19.5834 28.3327 19.5834C27.1171 19.5834 25.9513 20.0663 25.0918 20.9258C24.2329 21.7847 23.7501 22.9494 23.7493 24.164C23.7546 25.1916 24.1093 26.1869 24.7551 26.9863L25.7209 28.1819L24.3535 28.8838C23.0145 29.5711 21.8738 30.5897 21.04 31.8426L19.9993 33.4062L18.9587 31.8426C18.1249 30.5897 16.9841 29.5711 15.6452 28.8838L14.2778 28.1819L15.2436 26.9863C15.8894 26.1868 16.2441 25.1915 16.2493 24.1639C16.2486 22.9493 15.7658 21.7847 14.9069 20.9258C14.0474 20.0663 12.8816 19.5834 11.666 19.5834C10.4504 19.5834 9.28465 20.0663 8.42511 20.9258C7.56623 21.7847 7.08342 22.9494 7.08268 24.164C7.08796 25.1916 7.4426 26.1868 8.08839 26.9863L9.05608 28.1842L7.68476 28.8849C6.25059 29.6177 5.04649 30.7321 4.20509 32.1053C3.36368 33.4786 2.91761 35.0574 2.91602 36.668L1.66602 36.6667ZM1.66602 36.6667C1.66602 37.1088 1.84161 37.5327 2.15417 37.8453C2.46673 38.1578 2.89065 38.3334 3.33268 38.3334H36.666C37.108 38.3334 37.532 38.1578 37.8445 37.8453C38.1571 37.5327 38.3327 37.1088 38.3327 36.6667H1.66602ZM22.7777 11.6667H25.416H26.666V10.4167V6.25008V5.00008H25.416H14.5827H13.3327V6.25008V10.4167V11.6667H14.5827H22.7777ZM22.7777 11.6667C22.5332 11.6664 22.2917 11.7198 22.0702 11.8232C21.8487 11.9266 21.6527 12.0775 21.496 12.2651L22.7777 11.6667ZM12.3976 27.8447L12.1537 26.6187L12.3976 27.8447C13.125 27.7 13.7932 27.3428 14.3177 26.8184C14.8421 26.2939 15.1993 25.6258 15.344 24.8983C15.4887 24.1709 15.4144 23.4169 15.1306 22.7317C14.8467 22.0465 14.3661 21.4608 13.7494 21.0487C13.1327 20.6367 12.4077 20.4167 11.666 20.4167C10.6715 20.4167 9.71763 20.8118 9.01437 21.5151C8.3111 22.2184 7.91601 23.1722 7.91601 24.1667C7.91602 24.9084 8.13595 25.6334 8.548 26.2501C8.96006 26.8668 9.54573 27.3475 10.2309 27.6313C10.9162 27.9151 11.6702 27.9894 12.3976 27.8447ZM3.99872 34.6888L3.5973 36.2501H5.20935H18.1227H19.7347L19.3333 34.6888C18.8959 32.9877 17.9052 31.4803 16.5172 30.404C15.1291 29.3276 13.4225 28.7435 11.666 28.7435C9.90954 28.7435 8.20295 29.3276 6.81488 30.404C5.42681 31.4803 4.43611 32.9877 3.99872 34.6888ZM29.0643 27.8447L28.8204 26.6187L29.0643 27.8447C29.7917 27.7 30.4599 27.3428 30.9843 26.8184C31.5088 26.2939 31.8659 25.6258 32.0106 24.8983L30.7846 24.6545L32.0106 24.8983C32.1553 24.1709 32.0811 23.4169 31.7972 22.7317L30.6424 23.21L31.7972 22.7317C31.5134 22.0465 31.0328 21.4608 30.4161 21.0487C29.7994 20.6367 29.0744 20.4167 28.3327 20.4167C27.3381 20.4167 26.3843 20.8118 25.681 21.5151C24.9778 22.2184 24.5827 23.1722 24.5827 24.1667C24.5827 24.9084 24.8026 25.6334 25.2147 26.2501C25.6267 26.8668 26.2124 27.3475 26.8976 27.6313C27.5828 27.9151 28.3368 27.9894 29.0643 27.8447ZM20.6654 34.6888L20.264 36.2501H21.876H34.7893H36.4014L36 34.6888C35.5626 32.9877 34.5719 31.4803 33.1838 30.404C31.7957 29.3276 30.0892 28.7435 28.3327 28.7435C26.5762 28.7435 24.8696 29.3276 23.4815 30.404C22.0935 31.4803 21.1028 32.9877 20.6654 34.6888ZM17.4014 14.2L17.0266 13.7501H16.441H11.666C11.5555 13.7501 11.4495 13.7062 11.3714 13.628C11.2932 13.5499 11.2493 13.4439 11.2493 13.3334V3.33341C11.2493 3.22291 11.2932 3.11693 11.3714 3.03879L10.4914 2.15883L11.3714 3.03879C11.4495 2.96065 11.5555 2.91675 11.666 2.91675H28.3327C28.4432 2.91675 28.5492 2.96065 28.6273 3.03879C28.7054 3.11692 28.7493 3.2229 28.7493 3.33341V13.3334C28.7493 13.4439 28.7054 13.5499 28.6273 13.628C28.5492 13.7062 28.4432 13.7501 28.3327 13.7501H23.5577H22.9721L22.5973 14.2L20.3193 16.9345C20.3192 16.9346 20.3192 16.9348 20.3191 16.9349C20.28 16.9816 20.2312 17.0192 20.176 17.045C20.1207 17.0709 20.0604 17.0843 19.9993 17.0843C19.9383 17.0843 19.878 17.0709 19.8227 17.045C19.7676 17.0192 19.7188 16.9817 19.6798 16.935C19.6797 16.935 19.6797 16.9349 19.6797 16.9349C19.6796 16.9348 19.6795 16.9346 19.6793 16.9345L17.4014 14.2ZM13.3327 3.75008H12.0827V5.00008V11.6667V12.9167H13.3327H17.2203C17.2813 12.9168 17.3415 12.9302 17.3967 12.956C17.4519 12.9818 17.5007 13.0194 17.5397 13.0661C17.5398 13.0662 17.5399 13.0663 17.5399 13.0663L19.0394 14.8641L20.0004 16.0162L20.9601 14.863L22.4554 13.0663C22.4556 13.0662 22.4557 13.066 22.4558 13.0659C22.4949 13.0192 22.5438 12.9816 22.599 12.9559C22.6544 12.93 22.7147 12.9167 22.7759 12.9167H22.7777H26.666H27.916V11.6667V5.00008V3.75008H26.666H13.3327Z" fill="#95877A" fill-opacity="0.5" stroke="white" stroke-width="2.5"/>
</svg>
