<svg width="17" height="17" viewBox="0 0 17 17" fill="none" xmlns="http://www.w3.org/2000/svg">
<path d="M6.79997 1.69999C6.79997 0.76112 7.56105 0 8.49996 0C9.43886 0 10.2 0.76112 10.2 1.69999V6.79997H15.2999C16.2388 6.79997 16.9999 7.56105 16.9999 8.49996C16.9999 9.43886 16.2388 10.2 15.2999 10.2H10.2V15.2999C10.2 16.2388 9.43886 16.9999 8.49996 16.9999C7.56105 16.9999 6.79997 16.2388 6.79997 15.2999V10.2H1.69999C0.761103 10.2 0 9.43886 0 8.49996C0 7.56105 0.76112 6.79997 1.69999 6.79997H6.79997V1.69999Z" fill="#2C2015"/>
</svg>
