<svg width="15" height="21" viewBox="0 0 15 21" fill="none" xmlns="http://www.w3.org/2000/svg">
<path d="M5.24998 0C2.35051 0 0 2.3505 0 5.24999C0 5.82988 0.470095 6.29999 1.05 6.29999C1.62989 6.29999 2.1 5.82988 2.1 5.24999C2.1 3.5103 3.51034 2.1 5.24998 2.1H9.44997C11.1897 2.1 12.6 3.5103 12.6 5.24999V15.75C12.6 17.4897 11.1897 18.9 9.44997 18.9H5.24998C3.51034 18.9 2.1 17.4897 2.1 15.75C2.1 15.1701 1.62989 14.7 1.05 14.7C0.470095 14.7 0 15.1701 0 15.75C0 18.6494 2.35051 21 5.24998 21H9.44997C12.3494 21 14.7 18.6494 14.7 15.75V5.24999C14.7 2.3505 12.3494 0 9.44997 0H5.24998Z" fill="#2C2015" fill-opacity="0.8"/>
</svg>
