<svg width="31" height="23" viewBox="0 0 31 23" fill="none" xmlns="http://www.w3.org/2000/svg">
<path d="M25.2307 11.7445C28.2283 9.28222 30.1715 5.76738 30.6626 1.91935C30.6894 1.69574 30.6719 1.46903 30.6112 1.25216C30.5504 1.0353 30.4475 0.832536 30.3083 0.655442C30.1692 0.478348 29.9965 0.330395 29.8002 0.22003C29.6039 0.109666 29.3877 0.0390501 29.1641 0.0122164C28.9405 -0.0146174 28.7138 0.00285598 28.4969 0.0636384C28.2801 0.124421 28.0773 0.227322 27.9002 0.366467C27.7231 0.505612 27.5752 0.678276 27.4648 0.874601C27.3544 1.07092 27.2838 1.28706 27.257 1.51068C26.8499 4.38208 25.42 7.01002 23.2301 8.91135C21.0402 10.8127 18.2375 11.8596 15.3374 11.8596C12.4373 11.8596 9.63464 10.8127 7.44475 8.91135C5.25485 7.01002 3.8249 4.38208 3.41781 1.51068C3.39098 1.28706 3.32036 1.07092 3.21 0.874601C3.09963 0.678276 2.95168 0.505612 2.77459 0.366467C2.59749 0.227322 2.39473 0.124421 2.17787 0.0636384C1.961 0.00285598 1.73429 -0.0146174 1.51068 0.0122164C1.28706 0.0390501 1.07092 0.109666 0.874601 0.22003C0.678276 0.330395 0.505613 0.478348 0.366467 0.655442C0.227322 0.832536 0.124421 1.0353 0.0636381 1.25216C0.00285567 1.46903 -0.0146173 1.69574 0.0122165 1.91935C0.498938 5.76485 2.43585 9.27932 5.42711 11.7445L1.51068 15.695C1.23172 16.0207 1.08595 16.4398 1.1025 16.8683C1.11905 17.2969 1.29671 17.7034 1.59997 18.0066C1.90323 18.3099 2.30975 18.4876 2.73831 18.5041C3.16686 18.5207 3.58588 18.3749 3.91162 18.0959L8.35593 13.6687C10.0073 14.5032 11.7953 15.0338 13.6346 15.2352V21.2972C13.6346 21.7488 13.814 22.1819 14.1333 22.5013C14.4527 22.8206 14.8858 23 15.3374 23C15.789 23 16.2221 22.8206 16.5415 22.5013C16.8608 22.1819 17.0402 21.7488 17.0402 21.2972V15.2352C18.8795 15.0338 20.6675 14.5032 22.3189 13.6687L26.7632 18.0959C27.0889 18.3749 27.5079 18.5207 27.9365 18.5041C28.3651 18.4876 28.7716 18.3099 29.0748 18.0066C29.3781 17.7034 29.5557 17.2969 29.5723 16.8683C29.5889 16.4398 29.4431 16.0207 29.1641 15.695L25.2307 11.7445Z" fill="#2C2015"/>
</svg>
