<svg width="25" height="25" viewBox="0 0 25 25" fill="none" xmlns="http://www.w3.org/2000/svg">
<path d="M0 23.75C0 24.4404 0.621937 25 1.38912 25C2.1563 25 2.77824 24.4404 2.77824 23.75H0ZM12.3054 16.326C13.0648 16.4237 13.7685 15.949 13.8772 15.2656C13.9858 14.5822 13.4582 13.949 12.6988 13.8513L12.3054 16.326ZM19.8505 19.1161C19.3079 19.6042 19.3079 20.3958 19.8505 20.8839C20.393 21.372 21.2726 21.372 21.815 20.8839L19.8505 19.1161ZM16.7967 15.9384C16.6055 16.607 17.0527 17.2885 17.7957 17.4605C18.5388 17.6326 19.296 17.2301 19.4873 16.5616L16.7967 15.9384ZM20.8328 22.5C20.0656 22.5 19.4437 23.0596 19.4437 23.75C19.4437 24.4404 20.0656 25 20.8328 25V22.5ZM20.8467 25C21.6139 25 22.2358 24.4404 22.2358 23.75C22.2358 23.0596 21.6139 22.5 20.8467 22.5V25ZM15.2803 6.25C15.2803 8.32106 13.4146 10 11.113 10V12.5C14.9489 12.5 18.0586 9.70177 18.0586 6.25H15.2803ZM11.113 10C8.8114 10 6.9456 8.32106 6.9456 6.25H4.16736C4.16736 9.70177 7.27702 12.5 11.113 12.5V10ZM6.9456 6.25C6.9456 4.17894 8.8114 2.5 11.113 2.5V0C7.27702 0 4.16736 2.79822 4.16736 6.25H6.9456ZM11.113 2.5C13.4146 2.5 15.2803 4.17894 15.2803 6.25H18.0586C18.0586 2.79822 14.9489 0 11.113 0V2.5ZM2.77824 23.75C2.77824 19.6079 6.50982 16.25 11.113 16.25V13.75C4.97544 13.75 0 18.2271 0 23.75H2.77824ZM11.113 16.25C11.5186 16.25 11.9167 16.276 12.3054 16.326L12.6988 13.8513C12.1801 13.7845 11.6506 13.75 11.113 13.75V16.25ZM22.2218 16.875C22.2218 17.0915 22.1587 17.2566 21.7781 17.5871C21.5646 17.7725 21.3131 17.9566 20.9645 18.2175C20.6334 18.4654 20.2452 18.7609 19.8505 19.1161L21.815 20.8839C22.1148 20.6141 22.4211 20.3791 22.7412 20.1395C23.0437 19.9131 23.4 19.6529 23.7074 19.3859C24.3688 18.8116 25 18.0392 25 16.875H22.2218ZM20.8326 15.625C21.5998 15.625 22.2218 16.1846 22.2218 16.875H25C25 14.8039 23.1343 13.125 20.8326 13.125V15.625ZM19.4873 16.5616C19.6416 16.0221 20.1874 15.625 20.8326 15.625V13.125C18.889 13.125 17.2593 14.3212 16.7967 15.9384L19.4873 16.5616ZM20.8328 25H20.8467V22.5H20.8328V25Z" fill="#2C2015" fill-opacity="0.8"/>
</svg>
