<svg width="24" height="18" viewBox="0 0 24 18" fill="none" xmlns="http://www.w3.org/2000/svg">
<path d="M11.3988 5.27293C11.5589 5.27293 11.709 5.33297 11.8191 5.45303C11.8391 5.48305 11.8691 5.51307 11.8891 5.54308L14.5006 8.15453L17.122 5.53308C17.122 5.53308 17.162 5.47304 17.1921 5.45303C17.3622 5.28294 17.6223 5.23291 17.8424 5.32296C18.0625 5.41301 18.2126 5.63313 18.2126 5.87327C18.2126 6.03335 18.1526 6.18344 18.0425 6.2935L15.351 9.00501L17.9725 11.6165C17.9725 11.6165 18.0325 11.6565 18.0525 11.6865C18.2226 11.8566 18.2727 12.1167 18.1826 12.3369C18.0926 12.557 17.8724 12.7071 17.6323 12.7071C17.4722 12.7071 17.3221 12.647 17.2121 12.537L14.5106 9.84548L11.8191 12.547H11.8091C11.759 12.587 11.689 12.637 11.619 12.667C11.3988 12.7571 11.1387 12.7071 10.9686 12.537C10.8585 12.4269 10.7885 12.2768 10.7885 12.1167C10.7885 11.9566 10.8485 11.8066 10.9686 11.6965C10.9986 11.6665 11.0286 11.6465 11.0687 11.6165L13.6701 9.01501L10.9686 6.31351C10.9186 6.25348 10.8685 6.18344 10.8385 6.1134C10.7485 5.89328 10.7985 5.63313 10.9686 5.46304C11.0787 5.35298 11.2287 5.28294 11.3888 5.28294L11.3988 5.27293ZM18.4728 1.33074H11.0787C10.9886 1.33074 10.9086 1.33074 10.8285 1.33074C10.6784 1.33074 10.5284 1.33074 10.3382 1.33074C10.0081 1.33074 9.66788 1.36076 9.3477 1.42079C9.04753 1.47082 8.76738 1.57087 8.49723 1.70095C8.23708 1.83102 7.98694 2.01112 7.77682 2.22124C7.77682 2.22124 7.75681 2.24125 7.7268 2.27126C7.66676 2.3313 7.65676 2.35131 7.63675 2.37132C7.53669 2.46137 7.44664 2.55142 7.35659 2.64147C7.30656 2.6915 7.25654 2.74152 7.20651 2.79155L7.02641 2.97165L4.72513 5.27293C4.72513 5.27293 4.68511 5.31295 4.6751 5.32296C4.63508 5.36298 4.58505 5.41301 4.53502 5.45303L4.47499 5.51307C4.47499 5.51307 4.44497 5.54308 4.43497 5.55309L4.39494 5.59311L4.34492 5.64314L2.28377 7.70428C2.28377 7.70428 2.20373 7.79433 2.14369 7.84436C2.14369 7.84436 2.11701 7.87104 2.06365 7.92441C2.06365 7.92441 1.9836 8.00445 1.90356 8.0845C1.75348 8.22457 1.6234 8.38466 1.49333 8.54475L1.45331 8.59478C1.45331 8.59478 1.39327 8.67482 1.37326 8.71485C1.32324 8.89495 1.32324 9.07505 1.37326 9.25515C1.39327 9.29517 1.42329 9.33519 1.45331 9.37521L1.49333 9.42524C1.6234 9.58533 1.76348 9.73541 1.92357 9.8955C1.95359 9.92552 1.9836 9.95554 2.01362 9.99556L2.17371 10.1556C2.17371 10.1556 2.24375 10.2257 2.27376 10.2557L4.34492 12.3269L4.50501 12.4769C4.50501 12.4769 4.53502 12.507 4.54503 12.517C4.62507 12.597 4.65509 12.627 4.68511 12.657C4.68511 12.657 4.70512 12.677 4.73513 12.7071L7.03641 15.0184C7.20651 15.1884 7.27655 15.2585 7.3766 15.3585C7.49667 15.4786 7.56671 15.5486 7.64675 15.6287C7.66676 15.6487 7.66676 15.6487 7.7368 15.7287C7.75681 15.7488 7.77682 15.7688 7.78683 15.7788C7.99695 15.9889 8.23708 16.169 8.49723 16.2991C8.76738 16.4391 9.05754 16.5292 9.3477 16.5792C9.67788 16.6292 10.0081 16.6593 10.3483 16.6693C10.5183 16.6693 10.6784 16.6693 10.8385 16.6693H18.6829C18.823 16.6693 18.9731 16.6693 19.1832 16.6693C19.5234 16.6693 19.8535 16.6393 20.1837 16.5792C20.4839 16.5292 20.7741 16.4291 21.0442 16.2991C21.3144 16.159 21.5545 15.9889 21.7646 15.7788C21.9747 15.5687 22.1548 15.3185 22.2949 15.0584C22.435 14.7882 22.525 14.4981 22.5751 14.1979C22.6251 13.8677 22.6551 13.5275 22.6651 13.1773C22.6651 13.0773 22.6651 12.9972 22.6651 12.8071C22.6651 12.7671 22.6651 12.7471 22.6651 12.7271V5.23291C22.6651 5.23291 22.6651 5.2129 22.6651 5.19289C22.6651 5.07282 22.6651 5.02279 22.6651 4.96276C22.6651 4.90273 22.6651 4.8527 22.6651 4.79267C22.6651 4.46248 22.6351 4.12229 22.5751 3.80211C22.525 3.50195 22.425 3.21179 22.2949 2.95164C22.1548 2.68149 21.9847 2.44136 21.7746 2.23124C21.5645 2.02112 21.3244 1.84102 21.0642 1.71095C20.7941 1.57087 20.5039 1.48082 20.2237 1.4308C19.8936 1.38077 19.5634 1.35075 19.2232 1.34075C19.0431 1.34075 18.883 1.34075 18.7329 1.34075C18.6529 1.34075 18.5828 1.34075 18.4828 1.34075L18.4728 1.33074ZM18.5628 0H18.7229C18.883 0 19.0531 0 19.2332 0C19.6334 0 20.0336 0.0400223 20.4339 0.110061C20.8641 0.1801 21.2743 0.320178 21.6645 0.520289C22.0548 0.720401 22.415 0.980545 22.7251 1.29072C23.0353 1.60089 23.2955 1.95108 23.4956 2.35131C23.6857 2.74152 23.8257 3.15175 23.8958 3.58199C23.9558 3.97221 23.9958 4.37243 23.9958 4.76265C23.9958 4.82268 23.9958 4.87271 23.9958 4.94275C23.9958 5.01279 23.9958 5.06282 23.9958 5.18288C23.9958 5.21623 23.9958 5.25292 23.9958 5.29294V12.6971C23.9958 12.7371 23.9958 12.7771 23.9958 12.8171C23.9958 13.0072 23.9958 13.0973 23.9958 13.1973C23.9958 13.5976 23.9558 14.0078 23.8858 14.408C23.8157 14.8383 23.6757 15.2585 23.4756 15.6487C23.2754 16.0389 23.0153 16.3991 22.7051 16.7093C22.395 17.0195 22.0348 17.2796 21.6345 17.4797C21.2443 17.6798 20.8241 17.8099 20.3938 17.8899C19.9936 17.96 19.5934 17.99 19.1932 18C18.9831 18 18.823 18 18.6729 18H10.8185C10.6484 18 10.4783 18 10.3082 18C9.90801 18 9.50779 17.96 9.10756 17.8899C8.67733 17.8199 8.2671 17.6798 7.87688 17.4797C7.48666 17.2796 7.12646 17.0195 6.8363 16.7293C6.81629 16.7093 6.79628 16.6893 6.74625 16.6393C6.61618 16.5092 6.53613 16.4291 6.40606 16.3091C6.36604 16.269 6.33602 16.239 6.296 16.199L6.06587 15.9689L3.7846 13.6876C3.71457 13.6176 3.67454 13.5776 3.6045 13.5175C3.56448 13.4775 3.53447 13.4475 3.49444 13.4075L3.37438 13.2874L1.30322 11.2062L1.2632 11.1662L1.16315 11.0561C1.16315 11.0561 1.14314 11.0361 1.12312 11.0161C1.05309 10.9461 0.993052 10.8861 0.963036 10.846C0.792941 10.6759 0.622846 10.4958 0.472763 10.3057C0.332685 10.1556 0.212618 9.97555 0.132574 9.78544L0.112563 9.72541C-0.0375209 9.26515 -0.0375209 8.76487 0.112563 8.29461L0.132574 8.23458C0.212618 8.04447 0.332685 7.86437 0.472763 7.71429C0.622846 7.52418 0.792941 7.34408 0.95303 7.184C1.02307 7.11396 1.0731 7.05392 1.13313 6.99389L1.16315 6.96387C1.16315 6.96387 1.17315 6.95387 1.18316 6.94386C1.23319 6.89383 1.27321 6.85381 1.31323 6.81379L3.38438 4.74264L3.43441 4.69261C3.43441 4.69261 3.45442 4.6726 3.47443 4.65259C3.52446 4.60256 3.55448 4.57254 3.58449 4.54253C3.64453 4.48249 3.70456 4.42246 3.7746 4.35242L3.79461 4.33241C3.79461 4.33241 3.82463 4.30239 3.84464 4.28238L3.92468 4.20234C3.92468 4.20234 3.9547 4.17232 3.97471 4.15231L4.10478 4.02224C4.10478 4.02224 4.15481 3.97221 4.18483 3.94219L4.80517 3.32185C4.97527 3.15175 5.16537 2.96165 5.37549 2.75153L6.07588 2.05114C6.17593 1.95108 6.26598 1.86103 6.34603 1.791L6.41607 1.72096C6.51612 1.6209 6.61618 1.53085 6.71623 1.42079C6.80629 1.33074 6.81629 1.32073 6.8263 1.30072C7.13647 0.990551 7.48666 0.730406 7.88689 0.530295C8.2771 0.340189 8.68733 0.200111 9.11757 0.120067C9.50779 0.0600334 9.90801 0.0200111 10.2982 0.0200111C10.4883 0.0200111 10.6584 0.0200111 10.8085 0.0200111C10.8685 0.0200111 10.9186 0.0200111 10.9786 0.0200111H18.5528L18.5628 0Z" fill="white"/>
</svg>
