<svg width="40" height="40" viewBox="0 0 40 40" fill="none" xmlns="http://www.w3.org/2000/svg">
<path d="M3.33398 20.3398C3.33398 16.5257 3.33398 14.6187 4.19932 13.0378C5.06465 11.4569 6.64557 10.4758 9.80737 8.51347L13.1407 6.4447C16.483 4.3704 18.1542 3.33325 20.0007 3.33325C21.8472 3.33325 23.5183 4.3704 26.8606 6.4447L30.194 8.51345C33.3558 10.4758 34.9367 11.4569 35.802 13.0378C36.6673 14.6187 36.6673 16.5257 36.6673 20.3398V22.8749C36.6673 29.3763 36.6673 32.6271 34.7146 34.6468C32.7621 36.6666 29.6193 36.6666 23.334 36.6666H16.6673C10.3819 36.6666 7.23923 36.6666 5.2866 34.6468C3.33398 32.6271 3.33398 29.3763 3.33398 22.8749V20.3398Z" stroke="#95877A" stroke-opacity="0.5" stroke-width="3.75"/>
<path d="M15 26.6667C16.4173 27.7172 18.141 28.3334 20 28.3334C21.859 28.3334 23.5827 27.7172 25 26.6667" stroke="#95877A" stroke-opacity="0.5" stroke-width="3.75" stroke-linecap="round"/>
</svg>
