<svg width="345" height="345" viewBox="0 0 345 345" fill="none" xmlns="http://www.w3.org/2000/svg">
<path d="M17.2499 120.75C21.8249 120.75 26.2125 118.932 29.4475 115.697C32.6825 112.462 34.4999 108.075 34.4999 103.5V34.4999H103.5C108.075 34.4999 112.462 32.6825 115.697 29.4475C118.932 26.2125 120.75 21.8249 120.75 17.2499C120.75 12.675 118.932 8.28738 115.697 5.05239C112.462 1.8174 108.075 0 103.5 0H34.4999C25.3499 0 16.5748 3.6348 10.1048 10.1048C3.6348 16.5748 0 25.3499 0 34.4999V103.5C0 108.075 1.8174 112.462 5.05239 115.697C8.28738 118.932 12.675 120.75 17.2499 120.75Z" fill="white" fill-opacity="0.8"/>
<path d="M310.499 0H241.5C236.925 0 232.537 1.8174 229.302 5.05239C226.067 8.28738 224.25 12.675 224.25 17.2499C224.25 21.8249 226.067 26.2125 229.302 29.4475C232.537 32.6825 236.925 34.4999 241.5 34.4999H310.499V103.5C310.499 108.075 312.317 112.462 315.552 115.697C318.787 118.932 323.174 120.75 327.749 120.75C332.324 120.75 336.712 118.932 339.947 115.697C343.182 112.462 344.999 108.075 344.999 103.5V34.4999C344.999 25.3499 341.365 16.5748 334.895 10.1048C328.425 3.6348 319.649 0 310.499 0Z" fill="white" fill-opacity="0.8"/>
<path d="M327.749 224.249C323.174 224.249 318.787 226.067 315.552 229.302C312.317 232.537 310.499 236.924 310.499 241.499V310.499H241.5C236.925 310.499 232.537 312.316 229.302 315.551C226.067 318.786 224.25 323.174 224.25 327.749C224.25 332.324 226.067 336.711 229.302 339.946C232.537 343.181 236.925 344.999 241.5 344.999H310.499C319.649 344.999 328.425 341.364 334.895 334.894C341.365 328.424 344.999 319.649 344.999 310.499V241.499C344.999 236.924 343.182 232.537 339.947 229.302C336.712 226.067 332.324 224.249 327.749 224.249Z" fill="white" fill-opacity="0.8"/>
<path d="M103.5 310.499H34.4999V241.499C34.4999 236.924 32.6825 232.537 29.4475 229.302C26.2125 226.067 21.8249 224.249 17.2499 224.249C12.675 224.249 8.28738 226.067 5.05239 229.302C1.8174 232.537 0 236.924 0 241.499V310.499C0 319.649 3.6348 328.424 10.1048 334.894C16.5748 341.364 25.3499 344.999 34.4999 344.999H103.5C108.075 344.999 112.462 343.181 115.697 339.946C118.932 336.711 120.75 332.324 120.75 327.749C120.75 323.174 118.932 318.786 115.697 315.551C112.462 312.316 108.075 310.499 103.5 310.499Z" fill="white" fill-opacity="0.8"/>
<path d="M327.749 155.249H17.2499C12.675 155.249 8.28738 157.067 5.05239 160.302C1.8174 163.537 0 167.924 0 172.499C0 177.074 1.8174 181.462 5.05239 184.697C8.28738 187.932 12.675 189.749 17.2499 189.749H327.749C332.324 189.749 336.711 187.932 339.946 184.697C343.181 181.462 344.999 177.074 344.999 172.499C344.999 167.924 343.181 163.537 339.946 160.302C336.711 157.067 332.324 155.249 327.749 155.249Z" fill="white" fill-opacity="0.8"/>
</svg>
